<svg width="1800" height="1800" viewBox="0 0 1800 1800" fill="none" xmlns="http://www.w3.org/2000/svg">
<rect width="1800" height="1800" fill="white"/>
<rect width="1000" height="1000" fill="white"/>
<rect opacity="0.34" width="1800" height="1800" fill="url(#paint0_linear_5_268)"/>
<path fill-rule="evenodd" clip-rule="evenodd" d="M559.796 1441.17V560.119C559.796 457.595 616.108 401.29 721.169 401.29H1068.29C1285.13 401.29 1421.29 509.697 1421.29 682.812C1421.29 813.909 1342.29 909.711 1216.21 933.241V945.846C1370.02 955.931 1475.92 1094.35 1475.92 1248.97C1475.92 1443.94 1316.23 1600 1076.69 1600H721.169C616.108 1600 559.796 1544.54 559.796 1441.17ZM834.634 867.692H968.272C1095.18 867.692 1149.82 812.228 1149.82 730.713C1149.82 650.038 1094.34 597.935 997.689 597.935H834.634V867.692ZM983.4 1403.35H834.634V1045.85H1011.14C1132.17 1045.85 1193.52 1133 1193.52 1226.28C1193.52 1319.56 1132.17 1403.35 983.4 1403.35Z" fill="#95E9D1"/>
<path d="M323.667 1294.99V375.98C323.667 262.384 386.107 200 502.601 200H1079.48C1150.31 200 1217.86 250.28 1217.86 340.129C1217.86 429.977 1150.31 478.395 1079.48 478.395H628.414V701.408H1057.11C1123.28 701.408 1185.24 747.963 1185.24 832.225C1185.24 916.487 1123.28 961.18 1057.11 961.18H628.414V1192.57H1075.75C1150.31 1192.57 1217.86 1240.99 1217.86 1331.77C1217.86 1422.55 1150.31 1470.97 1074.82 1470.97H502.601C386.107 1470.97 323.667 1409.51 323.667 1294.99Z" fill="#FFA3A9"/>
<path fill-rule="evenodd" clip-rule="evenodd" d="M1197.93 416.269C1158.93 406.434 1115.52 401.29 1068.29 401.29H721.169C616.108 401.29 559.796 457.595 559.796 560.119V1441.17C559.796 1451.59 560.368 1461.53 561.505 1470.97H1075.01C1150.4 1470.97 1217.86 1422.58 1217.86 1331.86C1217.86 1297.71 1208.3 1269.55 1192.41 1247.72C1183.51 1332.02 1120.66 1403.35 983.4 1403.35H834.634V1192.75H629.223V961.496H1057.33C1123.41 961.496 1185.29 916.83 1185.29 832.621C1185.29 792.642 1171.34 761.156 1149.62 739.11C1145.93 816.014 1090.78 867.692 968.272 867.692H834.634V701.884H629.223V479.01H1079.67C1126.93 479.01 1172.74 457.402 1197.93 416.269Z" fill="#73216A"/>
<defs>
<linearGradient id="paint0_linear_5_268" x1="1800" y1="1800" x2="0" y2="0" gradientUnits="userSpaceOnUse">
<stop offset="0.191732" stop-color="#FFA3A9"/>
<stop offset="0.777669" stop-color="#95E9D1"/>
</linearGradient>
</defs>
</svg>
