<svg xmlns="http://www.w3.org/2000/svg" width="824" height="1000" fill="none"><path fill="#95E9D1" fill-rule="evenodd" d="M168.663 886.551V257.228c0-73.232 40.223-113.449 115.267-113.449h247.942c154.89 0 252.145 77.433 252.145 201.087 0 93.64-56.432 162.07-146.484 178.877v9.004C747.396 539.95 823.04 638.818 823.04 749.266 823.04 888.527 708.974 1000 537.876 1000H283.93c-75.044 0-115.267-39.617-115.267-113.449m196.313-409.628h95.455c90.652 0 129.675-39.617 129.675-97.842 0-57.625-39.623-94.841-108.663-94.841H364.976zm106.261 382.616H364.976V604.178h126.073c86.45 0 130.275 62.252 130.275 128.881s-43.825 126.48-150.087 126.48" clip-rule="evenodd"/><path fill="#FFA3A9" d="M0 782.134V125.7C0 44.56 44.6 0 127.81 0h412.054c50.591 0 98.844 35.914 98.844 100.092s-48.253 98.761-98.844 98.761H217.676v159.295h306.212c47.263 0 91.522 33.254 91.522 93.441S571.151 543.7 523.888 543.7H217.676v165.281h319.525c53.254 0 101.507 34.584 101.507 99.426 0 64.843-48.253 99.427-102.172 99.427H127.81C44.6 907.834 0 863.939 0 782.134"/><path fill="#73216A" fill-rule="evenodd" d="M624.473 154.478c-27.859-7.025-58.863-10.699-92.601-10.699H283.93c-75.044 0-115.267 40.217-115.267 113.449v629.323q.001 11.167 1.221 21.283h366.792c53.846 0 102.033-34.563 102.033-99.365 0-24.393-6.828-44.502-18.18-60.095-6.358 60.215-51.25 111.165-149.292 111.165H364.976V709.104H218.254V543.926h305.791c47.198 0 91.397-31.904 91.397-92.054 0-28.557-9.962-51.046-25.478-66.793-2.631 54.931-42.029 91.844-129.533 91.844h-95.455V358.489H218.254V199.293H540c33.761 0 66.48-15.435 84.473-44.815" clip-rule="evenodd"/></svg>