<svg width="16" height="16" viewbox="0 0 16 16" xmlns="http://www.w3.org/2000/svg"><g fill="none" fill-rule="evenodd"><path fill="#FFF" d="M0 0h16v16H0z"/><g fill-rule="nonzero"><path d="M4.452 13.35V4.74c0-1.064.584-1.649 1.675-1.649h3.604c2.252 0 3.665 1.126 3.665 2.923 0 1.361-.82 2.356-2.129 2.6v.131c1.597.105 2.697 1.274 2.697 2.88 0 2.024-1.658 3.376-4.145 3.376H6.127c-1.09 0-1.675-.576-1.675-1.65zm2.853-5.418h1.388c1.317 0 1.885-.575 1.885-1.422 0-.837-.576-1.378-1.58-1.378H7.305v2.8zm0 5.026H8.85c1.544 0 2.182-.602 2.182-1.57 0-.969-.638-1.606-1.894-1.606H7.305v3.176z" fill="#000"/><path d="M2 12.369V2.827C2 1.647 2.648 1 3.858 1h5.99c.735 0 1.436.656 1.436 1.589 0 .933-.701 1.57-1.437 1.57H5.164v2.047h4.451c.687 0 1.33.483 1.33 1.358 0 .875-.643 1.34-1.33 1.34h-4.45v2.134h4.644c.774 0 1.475.636 1.475 1.579 0 .942-.701 1.58-1.485 1.58H3.858c-1.21 0-1.858-.639-1.858-1.828z" fill="#000"/><path d="M11.148 3.264c-.24.551-.76.894-1.3.894H5.163v2.048h2.141v1.726h1.388c1.274 0 1.846-.538 1.883-1.338.225.229.37.556.37.97 0 .875-.644 1.34-1.33 1.34H5.163v2.134h2.141v1.92H8.85c1.38 0 2.035-.48 2.16-1.273.17.253.274.57.274.932 0 .942-.701 1.58-1.485 1.58H4.615a2.006 2.006 0 0 1-.163-.846V4.739c0-1.064.584-1.649 1.675-1.649h3.604c.52 0 .994.06 1.417.174z" fill="#FFF"/></g></g></svg>
