<svg width="893" height="1045" viewbox="0 0 893 1045" preserveAspectRatio="xMidYMid meet" xmlns="http://www.w3.org/2000/svg"><g fill-rule="nonzero" fill="none"><path d="M183 921.908V279.092C183 199.636 226.642 156 308.064 156h269.019c168.055 0 273.578 84.015 273.578 218.18 0 101.6-61.23 175.846-158.936 194.082v9.769C810.927 585.846 893 673.118 893 792.954 893 944.05 769.239 1045 583.596 1045H308.064C226.642 1045 183 1002.015 183 921.908zm213-404.446h103.569c98.358 0 140.697-42.985 140.697-106.16 0-62.523-42.99-102.902-117.899-102.902H396v209.062zm0 375.138h115.294c115.293 0 162.844-44.938 162.844-117.23 0-72.293-47.55-119.837-141.349-119.837H396V892.6z" fill="#95E9D1"/><path d="M0 848.615v-712.23C0 48.348 48.391 0 138.674 0h447.08C640.644 0 693 48.967 693 118.6c0 69.632-52.355 117.156-107.247 117.156H236.18v152.835h332.24c51.28 0 99.302 36.08 99.302 101.383s-48.021 99.94-99.302 99.94H236.18v159.33h346.685c57.781 0 110.136 47.524 110.136 117.878S640.645 985 582.142 985H138.674C48.391 985 0 937.374 0 848.615z" fill="#FFA3A9"/><path d="M682.829 168.985c-17.855 41.163-56.781 66.771-97.076 66.771H236.18v152.835H396v128.87h103.569c95.083 0 137.815-40.17 140.556-99.916 16.809 17.092 27.596 41.479 27.596 72.43 0 65.302-48.021 99.94-99.302 99.94H236.18v159.329H396V892.6h115.294c102.989 0 151.923-35.859 161.194-95.041C685.276 816.446 693 840.099 693 867.122 693 937.476 640.645 985 582.142 985H195.16c-8.05-17.422-12.16-38.509-12.16-63.092V279.092C183 199.636 226.642 156 308.064 156h269.019c38.748 0 74.173 4.467 105.746 12.985z" fill="#73216A"/></g></svg>
