<svg width="512" height="512" viewBox="0 0 512 512" fill="none" xmlns="http://www.w3.org/2000/svg">
<rect width="512" height="512" fill="white"/>
<rect opacity="0.34" width="512" height="512" fill="url(#paint0_linear_6_439)"/>
<path fill-rule="evenodd" clip-rule="evenodd" d="M159.138 409.847V159.377C159.138 130.23 175.149 114.224 205.02 114.224H303.716C365.371 114.224 404.084 145.043 404.084 194.257C404.084 231.526 381.621 258.761 345.775 265.45V269.033C389.507 271.9 419.618 311.25 419.618 355.208C419.618 410.634 374.213 455 306.106 455H205.02C175.149 455 159.138 439.232 159.138 409.847ZM237.282 246.815H275.278C311.363 246.815 326.896 231.048 326.896 207.874C326.896 184.939 311.124 170.127 283.642 170.127H237.282V246.815ZM279.58 399.097H237.282V297.463H287.466C321.878 297.463 339.323 322.239 339.323 348.758C339.323 375.276 321.878 399.097 279.58 399.097Z" fill="#95E9D1"/>
<path d="M92 368.289V107.029C92 74.735 109.754 57 142.876 57H306.897C327.036 57 346.243 71.2939 346.243 96.8365C346.243 122.379 327.036 136.144 306.897 136.144H178.648V199.543H300.538C319.351 199.543 336.969 212.778 336.969 236.733C336.969 260.687 319.351 273.393 300.538 273.393H178.648V339.174H305.837C327.036 339.174 346.243 352.939 346.243 378.746C346.243 404.553 327.036 418.318 305.572 418.318H142.876C109.754 418.318 92 400.848 92 368.289Z" fill="#FFA3A9"/>
<path fill-rule="evenodd" clip-rule="evenodd" d="M340.577 118.482C329.487 115.686 317.146 114.224 303.716 114.224H205.02C175.149 114.224 159.138 130.23 159.138 159.377V409.847C159.138 412.81 159.3 415.634 159.624 418.318H305.628C327.062 418.318 346.243 404.562 346.243 378.771C346.243 369.062 343.525 361.059 339.006 354.853C336.476 378.818 318.606 399.097 279.58 399.097H237.282V339.223H178.878V273.482H300.6C319.388 273.482 336.982 260.785 336.982 236.845C336.982 225.48 333.016 216.529 326.84 210.261C325.793 232.124 310.11 246.815 275.278 246.815H237.282V199.679H178.878V136.319H306.951C320.39 136.319 333.414 130.176 340.577 118.482Z" fill="#73216A"/>
<defs>
<linearGradient id="paint0_linear_6_439" x1="512" y1="512" x2="0" y2="0" gradientUnits="userSpaceOnUse">
<stop offset="0.191732" stop-color="#FFA3A9"/>
<stop offset="0.777669" stop-color="#95E9D1"/>
</linearGradient>
</defs>
</svg>
